HIERARCHY
ROOT hip
{
  OFFSET 0 0 0
  CHANNELS 6 Xposition Yposition Zposition Zrotation Yrotation Xrotation
  JOINT abdomen
  {
    OFFSET 0 20.6881 -0.73152
    CHANNELS 3 Zrotation Xrotation Yrotation
    JOINT chest
    {
      OFFSET 0 11.7043 -0.48768
      CHANNELS 3 Zrotation Xrotation Yrotation
      JOINT neck
      {
        OFFSET 0 22.1894 -2.19456
        CHANNELS 3 Zrotation Xrotation Yrotation
        JOINT head
        {
          OFFSET -0.24384 7.07133 1.2192
          CHANNELS 3 Zrotation Xrotation Yrotation
          JOINT leftEye
          {
            OFFSET 4.14528 8.04674 8.04672
            CHANNELS 3 Zrotation Xrotation Yrotation
            End Site
            {
              OFFSET 1 0 0
            }
          }
          JOINT rightEye
          {
            OFFSET -3.6576 8.04674 8.04672
            CHANNELS 3 Zrotation Xrotation Yrotation
            End Site
            {
              OFFSET 1 0 0
            }
          }
        }
      }
      JOINT rCollar
      {
        OFFSET -2.68224 19.2634 -4.8768
        CHANNELS 3 Zrotation Xrotation Yrotation
        JOINT rShldr
        {
          OFFSET -8.77824 -1.95073 1.46304
          CHANNELS 3 Zrotation Xrotation Yrotation
          JOINT rForeArm
          {
            OFFSET -28.1742 -1.7115 0.48768
            CHANNELS 3 Zrotation Xrotation Yrotation
            JOINT rHand
            {
              OFFSET -22.5879 0.773209 7.07136
              CHANNELS 3 Zrotation Xrotation Yrotation
              JOINT rThumb1
              {
                OFFSET -1.2192 -0.487915 3.41376
                CHANNELS 3 Zrotation Xrotation Yrotation
                JOINT rThumb2
                {
                  OFFSET -3.37035 -0.52449 3.41376
                  CHANNELS 3 Zrotation Xrotation Yrotation
                  End Site
                  {
                    OFFSET -1.78271 -1.18214 1.43049
                  }
                }
              }
              JOINT rIndex1
              {
                OFFSET -7.75947 0.938293 5.60832
                CHANNELS 3 Zrotation Xrotation Yrotation
                JOINT rIndex2
                {
                  OFFSET -2.54057 -0.884171 1.56538
                  CHANNELS 3 Zrotation Xrotation Yrotation
                  End Site
                  {
                    OFFSET -1.62519 -0.234802 1.16502
                  }
                }
              }
              JOINT rMid1
              {
                OFFSET -8.24714 1.18213 3.41376
                CHANNELS 3 Zrotation Xrotation Yrotation
                JOINT rMid2
                {
                  OFFSET -3.10165 -0.590103 1.0647
                  CHANNELS 3 Zrotation Xrotation Yrotation
                  End Site
                  {
                    OFFSET -2.48547 -0.328903 0.83742
                  }
                }
              }
              JOINT rRing1
              {
                OFFSET -8.82822 0.546677 1.51678
                CHANNELS 3 Zrotation Xrotation Yrotation
                JOINT rRing2
                {
                  OFFSET -2.60934 -0.819778 -0.0198488
                  CHANNELS 3 Zrotation Xrotation Yrotation
                  End Site
                  {
                    OFFSET -2.33842 -0.294052 0.168128
                  }
                }
              }
              JOINT rPinky1
              {
                OFFSET -8.27202 -0.0477905 -0.4584
                CHANNELS 3 Zrotation Xrotation Yrotation
                JOINT rPinky2
                {
                  OFFSET -1.82734 -0.647385 -0.700984
                  CHANNELS 3 Zrotation Xrotation Yrotation
                  End Site
                  {
                    OFFSET -1.69225 -0.51767 -0.607171
                  }
                }
              }
            }
          }
        }
      }
      JOINT lCollar
      {
        OFFSET 2.68224 19.2634 -4.8768
        CHANNELS 3 Zrotation Xrotation Yrotation
        JOINT lShldr
        {
          OFFSET 8.77824 -1.95073 1.46304
          CHANNELS 3 Zrotation Xrotation Yrotation
          JOINT lForeArm
          {
            OFFSET 28.1742 -1.7115 0.48768
            CHANNELS 3 Zrotation Xrotation Yrotation
            JOINT lHand
            {
              OFFSET 22.5879 0.773209 7.07136
              CHANNELS 3 Zrotation Xrotation Yrotation
              JOINT lThumb1
              {
                OFFSET 1.2192 -0.487915 3.41376
                CHANNELS 3 Zrotation Xrotation Yrotation
                JOINT lThumb2
                {
                  OFFSET 3.37035 -0.52449 3.41376
                  CHANNELS 3 Zrotation Xrotation Yrotation
                  End Site
                  {
                    OFFSET 1.78271 -1.18214 1.43049
                  }
                }
              }
              JOINT lIndex1
              {
                OFFSET 7.75947 0.938293 5.60832
                CHANNELS 3 Zrotation Xrotation Yrotation
                JOINT lIndex2
                {
                  OFFSET 2.54057 -0.884171 1.56538
                  CHANNELS 3 Zrotation Xrotation Yrotation
                  End Site
                  {
                    OFFSET 1.62519 -0.234802 1.16502
                  }
                }
              }
              JOINT lMid1
              {
                OFFSET 8.24714 1.18213 3.41376
                CHANNELS 3 Zrotation Xrotation Yrotation
                JOINT lMid2
                {
                  OFFSET 3.10165 -0.590103 1.0647
                  CHANNELS 3 Zrotation Xrotation Yrotation
                  End Site
                  {
                    OFFSET 2.48547 -0.328903 0.83742
                  }
                }
              }
              JOINT lRing1
              {
                OFFSET 8.82822 0.546677 1.51678
                CHANNELS 3 Zrotation Xrotation Yrotation
                JOINT lRing2
                {
                  OFFSET 2.60934 -0.819778 -0.0198488
                  CHANNELS 3 Zrotation Xrotation Yrotation
                  End Site
                  {
                    OFFSET 2.33842 -0.294052 0.168128
                  }
                }
              }
              JOINT lPinky1
              {
                OFFSET 8.27202 -0.0477905 -0.4584
                CHANNELS 3 Zrotation Xrotation Yrotation
                JOINT lPinky2
                {
                  OFFSET 1.82734 -0.647385 -0.700984
                  CHANNELS 3 Zrotation Xrotation Yrotation
                  End Site
                  {
                    OFFSET 1.69225 -0.51767 -0.607171
                  }
                }
              }
            }
          }
        }
      }
    }
  }
  JOINT rButtock
  {
    OFFSET -8.77824 4.35084 1.2192
    CHANNELS 3 Zrotation Xrotation Yrotation
    JOINT rThigh
    {
      OFFSET 0 -1.70687 -2.19456
      CHANNELS 3 Zrotation Xrotation Yrotation
      JOINT rShin
      {
        OFFSET 0 -36.8199 0.73152
        CHANNELS 3 Zrotation Xrotation Yrotation
        JOINT rFoot
        {
          OFFSET 0.73152 -45.1104 -5.12064
          CHANNELS 3 Zrotation Xrotation Yrotation
          End Site
          {
            OFFSET -1.1221 -3.69964 12.103
          }
        }
      }
    }
  }
  JOINT lButtock
  {
    OFFSET 8.77824 4.35084 1.2192
    CHANNELS 3 Zrotation Xrotation Yrotation
    JOINT lThigh
    {
      OFFSET 0 -1.70687 -2.19456
      CHANNELS 3 Zrotation Xrotation Yrotation
      JOINT lShin
      {
        OFFSET 0 -36.8199 0.73152
        CHANNELS 3 Zrotation Xrotation Yrotation
        JOINT lFoot
        {
          OFFSET -0.73152 -45.1104 -5.12064
          CHANNELS 3 Zrotation Xrotation Yrotation
          End Site
          {
            OFFSET 1.1221 -3.69964 12.103
          }
        }
      }
    }
  }
}
MOTION
Frames:	9
Frame Time:	0.00833333
24.8422 85.2311 -36.3046 -2.7808 -52.0181 7.0983 3.24535 -1.61448 3.08541 -0.131901 -0.580131 0.952252 -7.55566 -0.722483 -7.0732 8.76849 -17.9492 -10.605 -0.0 0.0 0.0 -0.0 0.0 0.0 1.13318e-13 3.08931e-13 6.17957e-13 29.1571 -1.65677 63.4413 -24.5662 -48.6325 101.441 -0.000861149 0.864935 0.121567 2.63765e-09 5.43809e-09 1.57251e-09 4.56721e-09 9.38683e-09 2.70985e-09 2.63766e-09 5.43808e-09 1.5725e-09 7.73091 5.47488 0.417314 2.63765e-09 5.43809e-09 1.5725e-09 2.90554 0.965183 0.102902 2.63766e-09 5.43808e-09 1.57251e-09 10.2786 0.731801 0.0259123 2.63765e-09 5.43809e-09 1.57251e-09 2.22167 -0.733487 -0.20892 1.13198e-13 3.08931e-13 6.17702e-13 -75.4604 36.2742 -2.54946 14.837 -7.65027 -27.2535 0.564437 -20.8461 3.0677 -2.59913e-09 1.80611e-09 2.0459e-09 -4.5252e-09 3.0804e-09 3.49932e-09 -2.59914e-09 1.80611e-09 2.0459e-09 -7.73091 5.47488 -0.417314 -2.59913e-09 1.80611e-09 2.0459e-09 -2.90554 0.965183 -0.102902 -2.59913e-09 1.8061e-09 2.04591e-09 -10.2786 0.731801 -0.0259123 -2.59912e-09 1.8061e-09 2.04591e-09 -2.22167 -0.733487 0.20892 -2.03217e-16 0.0 -3.88251e-19 4.62245 -2.71695 8.98501 0.0630238 6.3064 0.187358 -5.72752 -5.81081 -38.1308 2.03217e-16 0.0 3.88251e-19 3.55416 -15.8718 -14.7611 0.118279 20.7895 -0.461456 5.347 -7.24718 20.6909
24.8506 85.228 -36.3038 -2.7814 -52.0349 7.0753 3.2126 -1.59985 3.08033 -0.083795 -0.616186 0.951463 -7.5797 -0.81338 -7.11686 8.80258 -18.1468 -10.6593 -0.0 0.0 0.0 -0.0 0.0 0.0 2.1481e-14 -6.42353e-15 8.75677e-14 29.118 -1.94364 63.623 -24.5714 -48.6251 101.423 -0.000509519 0.697477 0.0980278 6.49187e-10 2.09237e-09 9.83689e-10 1.12514e-09 3.61703e-09 1.69965e-09 6.49196e-10 2.09237e-09 9.83678e-10 7.73091 5.47488 0.417314 6.49188e-10 2.09237e-09 9.83682e-10 2.90554 0.965183 0.102902 6.49192e-10 2.09237e-09 9.83687e-10 10.2786 0.731801 0.0259123 6.49185e-10 2.09237e-09 9.83689e-10 2.22167 -0.733487 -0.20892 2.13616e-14 -6.42418e-15 8.7313e-14 -75.596 36.0221 -2.46895 14.6829 -7.51933 -26.9376 0.564651 -20.8498 3.06829 -6.24718e-10 4.58891e-10 2.29578e-10 -1.08557e-09 7.85554e-10 3.88679e-10 -6.24724e-10 4.58892e-10 2.29584e-10 -7.73091 5.47488 -0.417314 -6.24716e-10 4.58891e-10 2.29582e-10 -2.90554 0.965183 -0.102902 -6.24727e-10 4.5889e-10 2.29585e-10 -10.2786 0.731801 -0.0259123 -6.24717e-10 4.58889e-10 2.29585e-10 -2.22167 -0.733487 0.20892 -2.03217e-16 0.0 -3.88251e-19 4.61597 -2.68966 8.95233 0.0644593 6.30847 0.187669 -5.74984 -5.85621 -38.0705 2.03217e-16 0.0 3.88251e-19 3.57505 -15.8651 -14.6598 0.118513 20.8092 -0.460917 5.31784 -7.22477 20.6073
24.8609 85.2247 -36.3038 -2.8075 -52.0321 7.0621 3.17567 -1.59105 3.06592 -0.0208851 -0.655694 0.948045 -7.61604 -0.887433 -7.15331 8.83348 -18.3206 -10.6991 -0.0 0.0 0.0 -0.0 0.0 0.0 -7.59451e-14 -3.32283e-13 -4.2533e-13 29.0633 -2.18133 63.7941 -24.5748 -48.6203 101.412 -0.000296658 0.537356 0.075522 -1.33596e-09 -1.26316e-09 3.67238e-10 -2.31149e-09 -2.17017e-09 6.41484e-10 -1.33595e-09 -1.26317e-09 3.67226e-10 7.73091 5.47488 0.417314 -1.33596e-09 -1.26317e-09 3.67231e-10 2.90554 0.965183 0.102902 -1.33596e-09 -1.26317e-09 3.67238e-10 10.2786 0.731801 0.0259123 -1.33596e-09 -1.26317e-09 3.67242e-10 2.22167 -0.733487 -0.20892 -7.60692e-14 -3.32284e-13 -4.25581e-13 -75.7421 35.7626 -2.38926 14.5337 -7.39367 -26.6334 0.564633 -20.8495 3.06824 1.37904e-09 -8.91927e-10 -1.58756e-09 2.40484e-09 -1.51535e-09 -2.72306e-09 1.37904e-09 -8.91923e-10 -1.58755e-09 -7.73091 5.47488 -0.417314 1.37904e-09 -8.91923e-10 -1.58756e-09 -2.90554 0.965183 -0.102902 1.37903e-09 -8.91924e-10 -1.58756e-09 -10.2786 0.731801 -0.0259123 1.37904e-09 -8.91924e-10 -1.58755e-09 -2.22167 -0.733487 0.20892 -2.03217e-16 0.0 -3.88251e-19 4.61049 -2.66292 8.9146 0.0658807 6.311 0.188091 -5.77885 -5.91039 -38.011 2.03217e-16 0.0 3.88251e-19 3.59661 -15.8624 -14.5606 0.118784 20.8315 -0.460422 5.28779 -7.20252 20.5193
24.867 85.2207 -36.3036 -2.8333 -52.0218 7.0428 3.14584 -1.60001 3.05536 0.0212144 -0.689103 0.94551 -7.63568 -0.92065 -7.16803 8.85038 -18.4994 -10.7067 -0.0 0.0 0.0 -0.0 0.0 0.0 -1.33743e-13 -5.20816e-13 -7.91908e-13 29.0478 -2.36539 63.9441 -24.5817 -48.6105 101.388 -0.000226442 0.429677 0.0603883 -2.69188e-09 -3.69286e-09 -1.5829e-10 -4.65872e-09 -6.36168e-09 -2.62199e-10 -2.69187e-09 -3.69286e-09 -1.58303e-10 7.73091 5.47488 0.417314 -2.69188e-09 -3.69287e-09 -1.58296e-10 2.90554 0.965183 0.102902 -2.69188e-09 -3.69287e-09 -1.58289e-10 10.2786 0.731801 0.0259123 -2.69188e-09 -3.69286e-09 -1.58283e-10 2.22167 -0.733487 -0.20892 -1.33879e-13 -5.20817e-13 -7.92157e-13 -75.8585 35.5306 -2.30654 14.3987 -7.28067 -26.3598 0.563632 -20.8321 3.06544 2.65658e-09 -1.87447e-09 -2.79598e-09 4.63131e-09 -3.19226e-09 -4.79334e-09 2.65658e-09 -1.87446e-09 -2.79596e-09 -7.73091 5.47488 -0.417314 2.65658e-09 -1.87446e-09 -2.79597e-09 -2.90554 0.965183 -0.102902 2.65657e-09 -1.87446e-09 -2.79597e-09 -10.2786 0.731801 -0.0259123 2.65657e-09 -1.87446e-09 -2.79597e-09 -2.22167 -0.733487 0.20892 -2.03217e-16 0.0 -3.88251e-19 4.60718 -2.63755 8.86923 0.0672848 6.31515 0.188614 -5.81297 -5.97073 -37.9566 2.03217e-16 0.0 3.88251e-19 3.61534 -15.8635 -14.4816 0.119005 20.8581 -0.460464 5.26654 -7.19799 20.4398
24.8697 85.2169 -36.3046 -2.8635 -52.0185 7.0198 3.12306 -1.63434 3.05137 0.0333457 -0.71547 0.94453 -7.63981 -0.886466 -7.1617 8.8628 -18.7061 -10.6832 -0.0 0.0 0.0 -0.0 0.0 0.0 -1.31387e-13 -4.93964e-13 -9.55729e-13 29.0918 -2.4847 64.0674 -24.5943 -48.5926 101.346 -0.000226237 0.401137 0.0563773 -3.12692e-09 -4.86306e-09 -6.18095e-10 -5.41165e-09 -8.38305e-09 -1.05623e-09 -3.12691e-09 -4.86307e-09 -6.18108e-10 7.73091 5.47488 0.417314 -3.12692e-09 -4.86307e-09 -6.18102e-10 2.90554 0.965183 0.102902 -3.12692e-09 -4.86307e-09 -6.18095e-10 10.2786 0.731801 0.0259123 -3.12692e-09 -4.86306e-09 -6.18088e-10 2.22167 -0.733487 -0.20892 -1.31554e-13 -4.93966e-13 -9.55977e-13 -75.9372 35.3276 -2.21226 14.2774 -7.18024 -26.1144 0.560545 -20.7783 3.05678 2.87929e-09 -2.33615e-09 -3.09758e-09 5.02191e-09 -3.98738e-09 -5.31187e-09 2.87929e-09 -2.33614e-09 -3.09756e-09 -7.73091 5.47488 -0.417314 2.8793e-09 -2.33614e-09 -3.09757e-09 -2.90554 0.965183 -0.102902 2.87928e-09 -2.33614e-09 -3.09758e-09 -10.2786 0.731801 -0.0259123 2.87929e-09 -2.33614e-09 -3.09757e-09 -2.22167 -0.733487 0.20892 -2.03217e-16 0.0 -3.88251e-19 4.60131 -2.61377 8.81466 0.0686603 6.32031 0.189134 -5.84694 -6.02862 -37.9128 2.03217e-16 0.0 3.88251e-19 3.62603 -15.8669 -14.4272 0.119111 20.8866 -0.461288 5.25931 -7.22594 20.3691
24.8784 85.2118 -36.3055 -2.8743 -51.9973 6.9955 3.10233 -1.6862 3.04719 0.0343892 -0.739354 0.943319 -7.64092 -0.804401 -7.14054 8.87287 -18.9203 -10.6358 -0.0 0.0 0.0 -0.0 0.0 0.0 -9.58161e-14 -3.4345e-13 -9.92861e-13 29.1631 -2.54693 64.1688 -24.6094 -48.571 101.295 -0.000244768 0.422789 0.0594204 -3.01648e-09 -5.30084e-09 -1.05647e-09 -5.22035e-09 -9.14267e-09 -1.81563e-09 -3.01647e-09 -5.30084e-09 -1.05648e-09 7.73091 5.47488 0.417314 -3.01648e-09 -5.30084e-09 -1.05647e-09 2.90554 0.965183 0.102902 -3.01647e-09 -5.30084e-09 -1.05647e-09 10.2786 0.731801 0.0259123 -3.01648e-09 -5.30084e-09 -1.05646e-09 2.22167 -0.733487 -0.20892 -9.60267e-14 -3.43452e-13 -9.93109e-13 -75.9988 35.1374 -2.11097 14.1664 -7.08949 -25.8896 0.556104 -20.7004 3.04424 2.49254e-09 -2.49311e-09 -2.86264e-09 4.3516e-09 -4.26667e-09 -4.91212e-09 2.49253e-09 -2.49311e-09 -2.86262e-09 -7.73091 5.47488 -0.417314 2.49254e-09 -2.4931e-09 -2.86263e-09 -2.90554 0.965183 -0.102902 2.49253e-09 -2.4931e-09 -2.86264e-09 -10.2786 0.731801 -0.0259123 2.49254e-09 -2.4931e-09 -2.86264e-09 -2.22167 -0.733487 0.20892 -2.03217e-16 0.0 -3.88251e-19 4.59394 -2.59113 8.75258 0.0700122 6.32616 0.189689 -5.88324 -6.08808 -37.8757 2.03217e-16 0.0 3.88251e-19 3.632 -15.8732 -14.3879 0.119163 20.9171 -0.462594 5.25994 -7.27369 20.3014
24.8972 85.2041 -36.3095 -2.8756 -51.9583 6.9935 3.08747 -1.74436 3.04179 0.0307963 -0.759459 0.941706 -7.62691 -0.71959 -7.09838 8.85879 -19.1061 -10.5565 -0.0 0.0 0.0 -0.0 0.0 0.0 -5.30089e-14 -1.76114e-13 -9.73237e-13 29.2381 -2.57556 64.254 -24.6245 -48.5494 101.244 -0.000266193 0.456278 0.0641271 -2.73522e-09 -5.36161e-09 -1.38349e-09 -4.73329e-09 -9.25181e-09 -2.38328e-09 -2.73521e-09 -5.36161e-09 -1.3835e-09 7.73091 5.47488 0.417314 -2.73522e-09 -5.36161e-09 -1.38349e-09 2.90554 0.965183 0.102902 -2.73521e-09 -5.36161e-09 -1.38349e-09 10.2786 0.731801 0.0259123 -2.73522e-09 -5.36161e-09 -1.38348e-09 2.22167 -0.733487 -0.20892 -5.32563e-14 -1.76116e-13 -9.73486e-13 -76.0462 34.9691 -2.01812 14.0705 -7.01168 -25.6958 0.552271 -20.6327 3.03336 1.90163e-09 -2.52655e-09 -2.48415e-09 3.326e-09 -4.33568e-09 -4.2671e-09 1.90162e-09 -2.52656e-09 -2.48413e-09 -7.73091 5.47488 -0.417314 1.90163e-09 -2.52654e-09 -2.48414e-09 -2.90554 0.965183 -0.102902 1.90163e-09 -2.52655e-09 -2.48415e-09 -10.2786 0.731801 -0.0259123 1.90164e-09 -2.52654e-09 -2.48415e-09 -2.22167 -0.733487 0.20892 -2.03217e-16 0.0 -3.88251e-19 4.59494 -2.56949 8.68518 0.0713624 6.33435 0.190486 -5.93183 -6.16549 -37.8362 2.03217e-16 0.0 3.88251e-19 3.64254 -15.8855 -14.3608 0.119265 20.955 -0.464057 5.26105 -7.31763 20.2401
24.9068 85.1972 -36.318 -2.8958 -51.936 7.0034 3.08229 -1.79763 3.03415 0.0290181 -0.774485 0.93952 -7.58559 -0.677173 -7.02899 8.79861 -19.2273 -10.437 -0.0 0.0 0.0 -0.0 0.0 0.0 -2.89454e-14 -9.8796e-14 -9.66789e-13 29.2932 -2.59358 64.3292 -24.6372 -48.5311 101.201 -0.0002632 0.463247 0.0651066 -2.65781e-09 -5.4008e-09 -1.50923e-09 -4.59894e-09 -9.32172e-09 -2.60205e-09 -2.6578e-09 -5.4008e-09 -1.50925e-09 7.73091 5.47488 0.417314 -2.65781e-09 -5.4008e-09 -1.50924e-09 2.90554 0.965183 0.102902 -2.6578e-09 -5.4008e-09 -1.50924e-09 10.2786 0.731801 0.0259123 -2.65781e-09 -5.4008e-09 -1.50923e-09 2.22167 -0.733487 -0.20892 -2.9201e-14 -9.87979e-14 -9.67038e-13 -76.0831 34.8317 -1.94902 13.9946 -6.95015 -25.5433 0.550961 -20.6095 3.02963 1.51191e-09 -2.61767e-09 -2.35509e-09 2.65076e-09 -4.49994e-09 -4.04987e-09 1.5119e-09 -2.61768e-09 -2.35508e-09 -7.73091 5.47488 -0.417314 1.51191e-09 -2.61767e-09 -2.35509e-09 -2.90554 0.965183 -0.102902 1.51191e-09 -2.61767e-09 -2.3551e-09 -10.2786 0.731801 -0.0259123 1.51192e-09 -2.61766e-09 -2.3551e-09 -2.22167 -0.733487 0.20892 -2.03217e-16 0.0 -3.88251e-19 4.61417 -2.54869 8.61464 0.0727327 6.34656 0.191729 -6.00255 -6.27731 -37.7852 2.03217e-16 0.0 3.88251e-19 3.66693 -15.9072 -14.343 0.119522 21.006 -0.465353 5.25534 -7.33413 20.1887
24.9105 85.1918 -36.3271 -2.914 -51.9285 6.9977 3.09145 -1.84536 3.01837 0.0312466 -0.784489 0.935114 -7.49936 -0.702036 -6.91076 8.65318 -19.2466 -10.2448 -0.0 0.0 0.0 -0.0 0.0 0.0 -3.88881e-14 -1.83297e-13 -9.97548e-13 29.3149 -2.59355 64.3967 -24.6469 -48.5172 101.168 -0.000213285 0.424413 0.0596483 -3.00443e-09 -5.49545e-09 -1.29744e-09 -5.19829e-09 -9.48396e-09 -2.23566e-09 -3.00443e-09 -5.49545e-09 -1.29745e-09 7.73091 5.47488 0.417314 -3.00443e-09 -5.49545e-09 -1.29744e-09 2.90554 0.965183 0.102902 -3.00442e-09 -5.49545e-09 -1.29744e-09 10.2786 0.731801 0.0259123 -3.00444e-09 -5.49545e-09 -1.29743e-09 2.22167 -0.733487 -0.20892 -3.9104e-14 -1.83298e-13 -9.97799e-13 -76.1124 34.7335 -1.90621 13.9435 -6.90872 -25.441 0.553772 -20.6595 3.03766 1.47183e-09 -2.8786e-09 -2.72386e-09 2.58519e-09 -4.94994e-09 -4.68724e-09 1.47182e-09 -2.87861e-09 -2.72385e-09 -7.73091 5.47488 -0.417314 1.47183e-09 -2.8786e-09 -2.72386e-09 -2.90554 0.965183 -0.102902 1.47182e-09 -2.8786e-09 -2.72386e-09 -10.2786 0.731801 -0.0259123 1.47183e-09 -2.8786e-09 -2.72387e-09 -2.22167 -0.733487 0.20892 -2.03217e-16 0.0 -3.88251e-19 4.66081 -2.52799 8.53954 0.0741525 6.36507 0.193706 -6.11135 -6.44807 -37.7156 2.03217e-16 0.0 3.88251e-19 3.71241 -15.9435 -14.338 0.120102 21.079 -0.466345 5.23747 -7.30467 20.1503
